<svg width="407.80625px" height="154.4px" xmlns="http://www.w3.org/2000/svg" viewBox="46.09687500000001 -2.200000000000003 407.80625 154.4" style="background: rgb(214, 214, 214);" preserveAspectRatio="xMidYMid"><defs><filter id="editing-extrude-glow"><feFlood flood-color="#bbcedd" result="flood-1"></feFlood><feMorphology operator="erode" radius="1" in="SourceAlpha" result="erode"></feMorphology><feComposite operator="in" in="flood-1" in2="erode" result="comp1"></feComposite><feConvolveMatrix order="3,3" divisor="1" in="comp1" result="convolve" kernelMatrix="0 0 0 1 1 1 0 0 0"></feConvolveMatrix><feOffset dx="-3" dy="0" in="convolve" result="extrude"></feOffset><feComposite operator="in" in="flood-1" in2="extrude" result="comp-extrude"></feComposite><feFlood flood-color="#dce4eb" result="flood-2"></feFlood><feComposite operator="in" in="flood-2" in2="SourceAlpha" result="comp2"></feComposite><feMorphology operator="dilate" radius="1" in="comp2" result="dilate"></feMorphology><feOffset dx="-4.5" dy="0" in="dilate" result="offset"></feOffset><feGaussianBlur in="offset" stdDeviation="5.8" result="blur"></feGaussianBlur><feComponentTransfer in="blur" result="shadow"><feFuncA type="linear" slope="0.8" intercept="-0.2"></feFuncA></feComponentTransfer><feMerge><feMergeNode in="shadow"></feMergeNode><feMergeNode in="comp-extrude"></feMergeNode><feMergeNode in="SourceGraphic"></feMergeNode></feMerge></filter></defs><g filter="url(#editing-extrude-glow)"><g transform="translate(105.85497856140137, 96.84000205993652)"><path d="M16.49-22.43L20.15-22.43L20.15-22.43Q23.05-22.43 24.60-23.77L24.60-23.77L24.60-23.77Q26.15-25.12 26.15-27.88L26.15-27.88L26.15-27.88Q26.15-30.50 24.53-31.91L24.53-31.91L24.53-31.91Q22.91-33.33 19.80-33.33L19.80-33.33L19.80-33.33Q18.70-33.33 17.97-33.29L17.97-33.29L17.97-33.29Q17.25-33.26 16.49-33.12L16.49-33.12L16.49-22.43ZM16.56-12.97L16.56-0.28L16.56-0.28Q15.80-0.07 14.18 0.14L14.18 0.14L14.18 0.14Q12.56 0.35 10.97 0.35L10.97 0.35L10.97 0.35Q9.38 0.35 8.18 0.10L8.18 0.10L8.18 0.10Q6.97-0.14 6.14-0.76L6.14-0.76L6.14-0.76Q5.31-1.38 4.90-2.48L4.90-2.48L4.90-2.48Q4.49-3.59 4.49-5.38L4.49-5.38L4.49-37.88L4.49-37.88Q4.49-39.33 5.28-40.12L5.28-40.12L5.28-40.12Q6.07-40.92 7.45-41.40L7.45-41.40L7.45-41.40Q9.80-42.23 12.80-42.61L12.80-42.61L12.80-42.61Q15.80-42.99 18.84-42.99L18.84-42.99L18.84-42.99Q28.36-42.99 33.40-38.92L33.40-38.92L33.40-38.92Q38.43-34.85 38.43-27.88L38.43-27.88L38.43-27.88Q38.43-24.50 37.36-21.77L37.36-21.77L37.36-21.77Q36.29-19.04 34.19-17.08L34.19-17.08L34.19-17.08Q32.09-15.11 28.88-14.04L28.88-14.04L28.88-14.04Q25.67-12.97 21.46-12.97L21.46-12.97L16.56-12.97ZM51.41-40.57L51.41-40.57L51.41-40.57Q52.58-41.26 54.96-41.88L54.96-41.88L54.96-41.88Q57.34-42.50 59.75-42.50L59.75-42.50L59.75-42.50Q63.20-42.50 65.86-41.50L65.86-41.50L65.86-41.50Q68.52-40.50 69.28-38.36L69.28-38.36L69.28-38.36Q70.52-34.78 71.97-30.02L71.97-30.02L71.97-30.02Q73.42-25.25 74.87-20.18L74.87-20.18L74.87-20.18Q76.31-15.11 77.69-10.18L77.69-10.18L77.69-10.18Q79.07-5.24 80.11-1.45L80.11-1.45L80.11-1.45Q79.28-0.48 77.63 0.10L77.63 0.10L77.63 0.10Q75.97 0.69 73.69 0.69L73.69 0.69L73.69 0.69Q72.04 0.69 70.90 0.41L70.90 0.41L70.90 0.41Q69.76 0.14 69.03-0.41L69.03-0.41L69.03-0.41Q68.31-0.97 67.86-1.86L67.86-1.86L67.86-1.86Q67.41-2.76 67.07-3.93L67.07-3.93L65.83-8.69L53.34-8.69L53.34-8.69Q52.79-6.62 52.23-4.42L52.23-4.42L52.23-4.42Q51.68-2.21 51.13-0.14L51.13-0.14L51.13-0.14Q50.16 0.21 49.09 0.45L49.09 0.45L49.09 0.45Q48.02 0.69 46.51 0.69L46.51 0.69L46.51 0.69Q42.99 0.69 41.30-0.52L41.30-0.52L41.30-0.52Q39.61-1.73 39.61-3.86L39.61-3.86L39.61-3.86Q39.61-4.83 39.88-5.80L39.88-5.80L39.88-5.80Q40.16-6.76 40.50-8.07L40.50-8.07L40.50-8.07Q40.99-9.94 41.85-12.70L41.85-12.70L41.85-12.70Q42.71-15.46 43.75-18.66L43.75-18.66L43.75-18.66Q44.78-21.87 45.95-25.25L45.95-25.25L45.95-25.25Q47.13-28.64 48.16-31.64L48.16-31.64L48.16-31.64Q49.20-34.64 50.06-36.98L50.06-36.98L50.06-36.98Q50.92-39.33 51.41-40.57ZM60.10-31.67L59.69-31.67L59.69-31.67Q58.72-28.77 57.51-25.22L57.51-25.22L57.51-25.22Q56.30-21.67 55.34-18.01L55.34-18.01L63.89-18.01L63.89-18.01Q62.93-21.74 61.93-25.29L61.93-25.29L61.93-25.29Q60.93-28.84 60.10-31.67L60.10-31.67ZM103.71-31.60L103.71-31.60L103.71-31.60Q104.47-31.95 106.09-32.40L106.09-32.40L106.09-32.40Q107.71-32.84 109.37-32.84L109.37-32.84L109.37-32.84Q112.26-32.84 114.20-31.98L114.20-31.98L114.20-31.98Q116.13-31.12 116.54-29.46L116.54-29.46L116.54-29.46Q117.30-26.63 117.96-24.18L117.96-24.18L117.96-24.18Q118.61-21.74 119.23-19.49L119.23-19.49L119.23-19.49Q119.85-17.25 120.44-15.04L120.44-15.04L120.44-15.04Q121.03-12.83 121.58-10.42L121.58-10.42L121.92-10.42L121.92-10.42Q122.54-14.63 123.03-18.46L123.03-18.46L123.03-18.46Q123.51-22.29 123.92-25.98L123.92-25.98L123.92-25.98Q124.34-29.67 124.75-33.29L124.75-33.29L124.75-33.29Q125.17-36.92 125.58-40.64L125.58-40.64L125.58-40.64Q128.13-42.09 131.03-42.09L131.03-42.09L131.03-42.09Q133.58-42.09 135.45-40.99L135.45-40.99L135.45-40.99Q137.31-39.88 137.31-37.26L137.31-37.26L137.31-37.26Q137.31-35.74 137.00-32.95L137.00-32.95L137.00-32.95Q136.69-30.15 136.17-26.70L136.17-26.70L136.17-26.70Q135.65-23.25 134.96-19.46L134.96-19.46L134.96-19.46Q134.27-15.66 133.52-12.21L133.52-12.21L133.52-12.21Q132.76-8.76 131.96-5.97L131.96-5.97L131.96-5.97Q131.17-3.17 130.48-1.66L130.48-1.66L130.48-1.66Q129.44-0.69 127.10-0.07L127.10-0.07L127.10-0.07Q124.75 0.55 122.27 0.55L122.27 0.55L122.27 0.55Q119.03 0.55 116.78-0.31L116.78-0.31L116.78-0.31Q114.54-1.17 114.06-2.76L114.06-2.76L114.06-2.76Q113.16-5.52 112.13-9.32L112.13-9.32L112.13-9.32Q111.09-13.11 109.92-17.66L109.92-17.66L109.92-17.66Q108.95-13.18 107.92-8.90L107.92-8.90L107.92-8.90Q106.88-4.62 106.05-1.66L106.05-1.66L106.05-1.66Q105.02-0.69 102.95-0.07L102.95-0.07L102.95-0.07Q100.88 0.55 98.39 0.55L98.39 0.55L98.39 0.55Q95.29 0.55 92.77-0.31L92.77-0.31L92.77-0.31Q90.25-1.17 89.49-2.76L89.49-2.76L89.49-2.76Q88.87-4.00 88.15-6.45L88.15-6.45L88.15-6.45Q87.42-8.90 86.66-12.04L86.66-12.04L86.66-12.04Q85.91-15.18 85.11-18.84L85.11-18.84L85.11-18.84Q84.32-22.49 83.66-26.15L83.66-26.15L83.66-26.15Q83.01-29.81 82.46-33.29L82.46-33.29L82.46-33.29Q81.90-36.78 81.63-39.68L81.63-39.68L81.63-39.68Q82.59-40.57 84.32-41.33L84.32-41.33L84.32-41.33Q86.04-42.09 88.04-42.09L88.04-42.09L88.04-42.09Q90.67-42.09 92.36-40.95L92.36-40.95L92.36-40.95Q94.05-39.81 94.46-37.12L94.46-37.12L94.46-37.12Q95.57-30.08 96.29-25.39L96.29-25.39L96.29-25.39Q97.01-20.70 97.46-17.70L97.46-17.70L97.46-17.70Q97.91-14.70 98.12-13.04L98.12-13.04L98.12-13.04Q98.33-11.39 98.53-10.42L98.53-10.42L98.88-10.42L98.88-10.42Q99.50-13.18 100.05-15.53L100.05-15.53L100.05-15.53Q100.60-17.87 101.19-20.25L101.19-20.25L101.19-20.25Q101.78-22.63 102.40-25.36L102.40-25.36L102.40-25.36Q103.02-28.08 103.71-31.60ZM168.84 0.21L150.35 0.21L150.35 0.21Q147.38 0.21 145.66-1.52L145.66-1.52L145.66-1.52Q143.93-3.24 143.93-6.21L143.93-6.21L143.93-41.88L143.93-41.88Q144.69-42.02 146.35-42.26L146.35-42.26L146.35-42.26Q148.01-42.50 149.52-42.50L149.52-42.50L149.52-42.50Q151.11-42.50 152.32-42.26L152.32-42.26L152.32-42.26Q153.53-42.02 154.35-41.40L154.35-41.40L154.35-41.40Q155.18-40.78 155.60-39.68L155.60-39.68L155.60-39.68Q156.01-38.57 156.01-36.78L156.01-36.78L156.01-9.52L171.81-9.52L171.81-9.52Q172.29-8.76 172.71-7.49L172.71-7.49L172.71-7.49Q173.12-6.21 173.12-4.83L173.12-4.83L173.12-4.83Q173.12-2.07 171.95-0.93L171.95-0.93L171.95-0.93Q170.78 0.21 168.84 0.21L168.84 0.21ZM191.41-36.71L191.41-0.28L191.41-0.28Q190.65-0.07 189.03 0.14L189.03 0.14L189.03 0.14Q187.40 0.35 185.82 0.35L185.82 0.35L185.82 0.35Q184.23 0.35 183.02 0.10L183.02 0.10L183.02 0.10Q181.81-0.14 180.99-0.76L180.99-0.76L180.99-0.76Q180.16-1.38 179.75-2.48L179.75-2.48L179.75-2.48Q179.33-3.59 179.33-5.38L179.33-5.38L179.33-41.81L179.33-41.81Q180.09-41.95 181.75-42.19L181.75-42.19L181.75-42.19Q183.40-42.44 184.92-42.44L184.92-42.44L184.92-42.44Q186.51-42.44 187.71-42.19L187.71-42.19L187.71-42.19Q188.92-41.95 189.75-41.33L189.75-41.33L189.75-41.33Q190.58-40.71 190.99-39.61L190.99-39.61L190.99-39.61Q191.41-38.50 191.41-36.71L191.41-36.71ZM238.26-36.92L238.26-1.45L238.26-1.45Q237.29-0.48 235.46 0.03L235.46 0.03L235.46 0.03Q233.63 0.55 231.08 0.55L231.08 0.55L231.08 0.55Q228.53 0.55 226.25-0.21L226.25-0.21L226.25-0.21Q223.97-0.97 222.53-3.86L222.53-3.86L215.69-17.80L215.69-17.80Q214.66-19.94 213.83-21.84L213.83-21.84L213.83-21.84Q213.00-23.74 212.04-26.22L212.04-26.22L211.62-26.15L211.62-26.15Q211.90-22.43 211.93-18.56L211.93-18.56L211.93-18.56Q211.97-14.70 211.97-10.97L211.97-10.97L211.97-0.28L211.97-0.28Q211.21-0.07 209.66 0.14L209.66 0.14L209.66 0.14Q208.10 0.35 206.59 0.35L206.59 0.35L206.59 0.35Q205.07 0.35 203.90 0.14L203.90 0.14L203.90 0.14Q202.72-0.07 201.96-0.69L201.96-0.69L201.96-0.69Q201.20-1.31 200.79-2.38L200.79-2.38L200.79-2.38Q200.38-3.45 200.38-5.18L200.38-5.18L200.38-39.68L200.38-39.68Q201.34-41.06 203.34-41.75L203.34-41.75L203.34-41.75Q205.34-42.44 207.62-42.44L207.62-42.44L207.62-42.44Q210.17-42.44 212.49-41.64L212.49-41.64L212.49-41.64Q214.80-40.85 216.18-38.02L216.18-38.02L223.08-24.08L223.08-24.08Q224.11-21.94 224.94-20.04L224.94-20.04L224.94-20.04Q225.77-18.15 226.73-15.66L226.73-15.66L227.08-15.73L227.08-15.73Q226.80-19.46 226.73-23.18L226.73-23.18L226.73-23.18Q226.67-26.91 226.67-30.64L226.67-30.64L226.67-41.81L226.67-41.81Q227.42-42.02 228.98-42.23L228.98-42.23L228.98-42.23Q230.53-42.44 232.05-42.44L232.05-42.44L232.05-42.44Q235.08-42.44 236.67-41.37L236.67-41.37L236.67-41.37Q238.26-40.30 238.26-36.92L238.26-36.92ZM269.10-4.21L259.37-15.53L259.37-0.28L259.37-0.28Q258.61-0.07 256.96 0.14L256.96 0.14L256.96 0.14Q255.30 0.35 253.71 0.35L253.71 0.35L253.71 0.35Q252.13 0.35 250.92 0.10L250.92 0.10L250.92 0.10Q249.71-0.14 248.88-0.76L248.88-0.76L248.88-0.76Q248.06-1.38 247.64-2.48L247.64-2.48L247.64-2.48Q247.23-3.59 247.23-5.38L247.23-5.38L247.23-41.81L247.23-41.81Q247.99-41.95 249.64-42.19L249.64-42.19L249.64-42.19Q251.30-42.44 252.82-42.44L252.82-42.44L252.82-42.44Q254.40-42.44 255.61-42.19L255.61-42.19L255.61-42.19Q256.82-41.95 257.65-41.33L257.65-41.33L257.65-41.33Q258.47-40.71 258.89-39.61L258.89-39.61L258.89-39.61Q259.30-38.50 259.30-36.71L259.30-36.71L259.30-25.74L273.65-42.23L273.65-42.23Q278.35-42.23 280.38-40.47L280.38-40.47L280.38-40.47Q282.42-38.71 282.42-36.29L282.42-36.29L282.42-36.29Q282.42-34.50 281.52-32.91L281.52-32.91L281.52-32.91Q280.62-31.33 278.62-29.33L278.62-29.33L270.00-20.70L270.00-20.70Q271.72-18.77 273.62-16.70L273.62-16.70L273.62-16.70Q275.52-14.63 277.35-12.66L277.35-12.66L277.35-12.66Q279.17-10.70 280.86-8.90L280.86-8.90L280.86-8.90Q282.56-7.11 283.80-5.80L283.80-5.80L283.80-5.80Q283.80-4.28 283.25-3.11L283.25-3.11L283.25-3.11Q282.69-1.93 281.76-1.10L281.76-1.10L281.76-1.10Q280.83-0.28 279.66 0.14L279.66 0.14L279.66 0.14Q278.48 0.55 277.17 0.55L277.17 0.55L277.17 0.55Q274.34 0.55 272.55-0.86L272.55-0.86L272.55-0.86Q270.76-2.28 269.10-4.21L269.10-4.21Z" fill="#85a2b6"></path></g></g><style>text {
  font-size: 64px;
  font-family: Arial Black;
  dominant-baseline: central;
  text-anchor: middle;
}</style></svg>